<svg id="egRyB6UH4XP1" xmlns="http://www.w3.org/2000/svg" xmlns:xlink="http://www.w3.org/1999/xlink" viewBox="0 0 300 300" shape-rendering="geometricPrecision" text-rendering="geometricPrecision"><defs><linearGradient id="egRyB6UH4XP2-fill" x1="0.498975" y1="1" x2="0.498975" y2="0" spreadMethod="pad" gradientUnits="objectBoundingBox" gradientTransform="translate(0 0)"><stop id="egRyB6UH4XP2-fill-0" offset="0%" stop-color="#e2dcff"/><stop id="egRyB6UH4XP2-fill-1" offset="100%" stop-color="#2800c3"/></linearGradient><linearGradient id="egRyB6UH4XP6-fill" x1="0.827195" y1="3.505005" x2="0.93229" y2="-1.738074" spreadMethod="pad" gradientUnits="objectBoundingBox" gradientTransform="translate(0 0)"><stop id="egRyB6UH4XP6-fill-0" offset="0%" stop-color="#e2dcff"/><stop id="egRyB6UH4XP6-fill-1" offset="100%" stop-color="#2800c3"/></linearGradient></defs><polygon points="0.182386,-30 2.742433,-5.24903 7.862527,-7.356154 5.5721,-1.592151 21.63073,0.131613 5.572099,1.888 7.862529,8.413296 2.742434,5.512255 0.182386,30.263226 -2.486599,5.512256 -7.170943,8.413296 -5.476732,1.888 -21.178208,0.131613 -5.476732,-1.592151 -7.170942,-7.356157 -2.486599,-5.249035 0.182386,-30" transform="matrix(4.638467 0 0 4.646283 149.154009 148.883184)" fill="url(#egRyB6UH4XP2-fill)" stroke="#000" stroke-width="0.5"/><ellipse rx="118.344202" ry="44.948039" transform="matrix(.811754-.583999 0.429232 0.596629 150 149.494695)" fill="none" stroke="#000" stroke-width="2"/><ellipse rx="118.344202" ry="44.948039" transform="matrix(.728135-.523842 0.360099 0.500535 150 149.494695)" fill="none" stroke="#000" stroke-width="2"/><ellipse rx="118.344202" ry="44.948039" transform="matrix(.648729-.466714 0.268167 0.372749 150 149.494695)" fill="none" stroke="#000" stroke-width="2"/><polygon points="9.256646,-5.260256 10.767123,18.196139 -21.907924,43.334281 -78.00796,34.542418 -21.798124,29.495838 -27.200224,6.864468 -9.080271,15.143006 -6.714454,-2.123936 9.256646,-5.260256" transform="matrix(1.136962-.043964 0.042432 1.097356 148.399551 108.159837)" fill="url(#egRyB6UH4XP6-fill)" stroke-width="0"/><ellipse rx="10" ry="10" transform="translate(229.984829 126.745641)" fill="#006773" stroke="#000" stroke-width="2"/><ellipse rx="7.5" ry="7.5" transform="translate(80.726751 183.811984)" fill="#006773" stroke="#000" stroke-width="2"/><ellipse rx="5" ry="5" transform="translate(186.111703 89.261769)" fill="#006773" stroke="#000"/><ellipse rx="5" ry="5" transform="translate(125.706863 196.539361)" fill="#006773" stroke="#000"/></svg>
